# xmcd
#
# Track frame offsets: 
#        150
#        24295
#        40149
#        55820
#        66425
#        81353
#        99428
#        117559
#        136395
#        152934
#        169348
#        187140
#        200892
#        221930
#        250426
#        269337
#
# Disc length: 3884 seconds
#
# Revision: 0
# Processed by: cddbd v1.5.2PL0 Copyright (c) Steve Scherf et al.
# Submitted via: ExactAudioCopy v1.0b3
#
DISCID=fe0f2a10
DTITLE=Clark Sisters - Count Iyt All Joy and He Gave Me Nothing To Lose
DYEAR=2002
DGENRE=Gospel
TTITLE0=A Praying Spirit
TTITLE1=Counting On Joy
TTITLE2=He's Worthy to Be Praised
TTITLE3=Time to Seek the Lord
TTITLE4=Prepare Yourself
TTITLE5=I Found What I'm Looking For
TTITLE6=I Know God is for Me
TTITLE7=No Other Name
TTITLE8=Patience
TTITLE9=My Life is Complete With Jesus
TTITLE10=My Cup Runneth Over
TTITLE11=God Understands All
TTITLE12=Nothing to Lose
TTITLE13=Everything's Gonna Be Alright
TTITLE14=Only Believe
TTITLE15=Determination
EXTD=
EXTT0=
EXTT1=
EXTT2=
EXTT3=
EXTT4=
EXTT5=
EXTT6=
EXTT7=
EXTT8=
EXTT9=
EXTT10=
EXTT11=
EXTT12=
EXTT13=
EXTT14=
EXTT15=
PLAYORDER=
